<?xml version="1.0" standalone="no"?><!DOCTYPE svg PUBLIC "-//W3C//DTD SVG 1.1//EN"
    "http://www.w3.org/Graphics/SVG/1.1/DTD/svg11.dtd">
<svg t="1618967684582" class="icon" viewBox="0 0 1024 1024" version="1.1"
    xmlns="http://www.w3.org/2000/svg" p-id="3639" width="200" height="200">

    <path
        d="M512 637.952c-16.896 0-34.304-3.584-49.152-10.752l-228.352-107.008v235.52c0 11.776 8.704 23.04 22.528 28.672L491.008 880.64c12.8 5.12 27.648 5.12 40.448 0l235.52-96.256c13.824-5.632 22.528-16.896 22.528-28.672v-235.52l-228.352 107.008c-14.848 6.656-32.256 10.752-49.152 10.752z"
        p-id="3640" fill="#515151"></path>
    <path
        d="M936.96 321.536L536.064 133.12c-14.848-7.168-33.28-7.168-48.128 0L87.04 321.536c-30.72 14.336-30.72 49.152 0 63.488L487.936 573.44c14.848 7.168 33.28 7.168 48.128 0l295.936-138.752V629.76c0 17.92 14.336 31.744 31.744 31.744s31.744-14.336 31.744-31.744V404.48l40.96-19.456c31.232-14.336 31.232-49.152 0.512-63.488z"
        p-id="3641" fill="#515151"></path>
</svg>