<?xml version="1.0" standalone="no"?><!DOCTYPE svg PUBLIC "-//W3C//DTD SVG 1.1//EN" "http://www.w3.org/Graphics/SVG/1.1/DTD/svg11.dtd"><svg t="1616930132440" class="icon" viewBox="0 0 1024 1024" version="1.1" xmlns="http://www.w3.org/2000/svg" p-id="4332" xmlns:xlink="http://www.w3.org/1999/xlink" width="200" height="200"><defs></defs><path d="M512 64.43c-247.42 0-448 186.25-448 416 0 127.67 62.07 241.77 159.56 318.08l23.06 121.85a48.12 48.12 0 0 0 65.61 35.55l137.17-64a481.47 481.47 0 0 0 62.6 4.53c247.42 0 448-186.25 448-416S759.42 64.43 512 64.43zM288 575.57a64 64 0 1 1 64-64 64 64 0 0 1-64 64z m224 0a64 64 0 1 1 64-64 64 64 0 0 1-64 64z m224 0a64 64 0 1 1 64-64 64 64 0 0 1-64 64z" p-id="4333" fill="#8DC63F"></path></svg>