<?xml version="1.0" standalone="no"?><!DOCTYPE svg PUBLIC "-//W3C//DTD SVG 1.1//EN"
    "http://www.w3.org/Graphics/SVG/1.1/DTD/svg11.dtd">
<svg t="1616834792142" class="icon" viewBox="0 0 1024 1024" version="1.1"
    xmlns="http://www.w3.org/2000/svg" p-id="2629" width="200" height="200">
    <path d="M739.7 959.6l-232.7-80-225.4 80V574.2h458.1z" fill="#FF7E71" p-id="2630"></path>
    <path
        d="M281.6 743.7c62.5 52.1 142.8 83.6 230.5 83.6 86.4 0 165.6-30.4 227.6-81.1V639.6H281.6v104.1z"
        fill="#F7554D" p-id="2631"></path>
    <path d="M512.1 423.6m-360 0a360 360 0 1 0 720 0 360 360 0 1 0-720 0Z" fill="#A4BEFF"
        p-id="2632"></path>
    <path d="M512.1 423.6m-287.3 0a287.3 287.3 0 1 0 574.6 0 287.3 287.3 0 1 0-574.6 0Z"
        fill="#5B79FB" p-id="2633"></path>
    <path d="M512.1 423.6m-250.9 0a250.9 250.9 0 1 0 501.8 0 250.9 250.9 0 1 0-501.8 0Z"
        fill="#C7D8FF" p-id="2634"></path>
    <path
        d="M512.1 280.7l46.4 94.1 103.9 15.1-75.2 73.2L605 566.5l-92.9-48.8-92.9 48.8L437 463.1l-75.2-73.2 103.9-15.1z"
        fill="#5B79FB" p-id="2635"></path>
    <path
        d="M504.8 273.4l46.5 94.1 103.8 15.1-75.1 73.2 17.7 103.4-92.9-48.8-92.8 48.8 17.7-103.4-75.1-73.2 103.8-15.1z"
        fill="#FFFFFF" p-id="2636"></path>
</svg>