<?xml version="1.0" standalone="no"?><!DOCTYPE svg PUBLIC "-//W3C//DTD SVG 1.1//EN"
    "http://www.w3.org/Graphics/SVG/1.1/DTD/svg11.dtd">
<svg t="1618135176321" class="icon" viewBox="0 0 1024 1024" version="1.1"
    xmlns="http://www.w3.org/2000/svg" p-id="6867" width="200" height="200">

    <path
        d="M854.181357 520.336301l-88.072285-88.082524-38.184112 38.184112 88.082525 88.082525 38.173872-38.184113zM921.579541 0.022732H102.397727C45.843462 0.022732 0-0.028467 0 0.022732l1023.977268 1023.977268V102.420459c0-56.544025-45.843462-102.397727-102.397727-102.397727zM797.166303 288.692164l26.480052 1.525726c1.36189 28.84544 1.36189 51.762051 0 68.729354l-29.777259-1.78172c1.689562-19.005018 2.795458-41.819232 3.297207-68.47336z m-323.781612 129.840317L337.963697 283.111488c-25.968064-25.957824-25.537993-52.345718 1.269732-79.153443L471.60297 71.578264l21.892634 21.892634-34.876665 34.866426 152.22446 152.22446 65.421908-65.421907L492.737861 31.612431l18.830942-18.841182 204.918331 204.918331-118.617527 118.627767-21.380645-21.390886 15.523495-15.523495-152.22446-152.224461-74.074516 74.074516c-15.615653 15.605414-16.035484 30.801236-1.279971 45.556749L489.932164 392.308424c14.591676 14.591676 28.671363 18.155117 42.249302 10.690322 13.403862-7.300958 29.531504-18.841182 48.362446-34.620671 3.737517 9.502509 8.488772 19.35317 14.264003 29.531504-20.018756 15.267501-36.658386 26.807725-49.888172 34.620672-24.268261 14.079687-48.116692 9.420591-71.535052-13.99777z m73.040298 94.431184l199.57317-199.56293 19.598925 19.598925-199.57317 199.56293-19.598925-19.598925z m61.356718 20.110914c2.539464-9.00076 4.239266-18.155117 5.078927-27.49379 26.992041 13.741775 50.154407 20.110914 69.497338 19.086936 13.741775-1.525726 28.343691-8.99052 43.775028-22.404622l-15.021747-15.021747-7.116642 7.126882-18.329193-18.329193 78.907688-78.907689 35.132661 35.122421c2.549703-16.455315 4.577178-34.446595 6.113144-53.963602l24.442337 3.051452c-0.522228 23.592436-1.955797 43.529274-4.331424 59.820752l-20.868656-3.563441 29.019515 29.019516a638.859417 638.859417 0 0 0 66.435646-14.509758l7.382876 27.749784a877.343723 877.343723 0 0 1-53.195619 7.382876l34.620671 34.620671-71.791046 71.780807-35.634409-35.624169-34.620672 34.620671c-7.290718 7.300958-7.546712 14.335682-0.757743 21.124651l12.216049 12.216049c8.652608 8.662848 17.56121 9.246515 26.725807 1.79196 6.963045-5.601156 14.837431-12.820195 23.674354-21.636639 2.549703 5.263243 6.276981 13.403862 11.202311 24.442337-12.052212 10.690323-21.052973 17.991281-26.99204 21.892634-15.77949 11.7143-31.733056 9.502509-47.850458-6.614893l-21.380645-21.380646c-14.765752-14.765752-14.264003-30.043493 1.525726-45.822982l38.440106-38.440107-19.854919-19.854919c-20.203071 17.817204-39.720078 27.831702-58.55102 30.043493-19.35317 3.030973-45.310994-2.744259-77.893951-17.325695z m199.061181 174.618843c-21.902874 21.892634-45.055 20.622902-69.497337-3.819435-12.902114-12.902114-25.445835-25.804227-37.672124-38.685861 4.915091-6.963045 10.086176-14.84767 15.533735-23.684595a763.375053 763.375053 0 0 0 37.41613 40.477822c13.577939 13.567699 26.224058 14.509758 37.917878 2.795458l179.216501-179.206262-129.318089-129.307849 18.329193-18.329193 148.906775 148.917014L806.842888 707.693422z"
        p-id="6868"></path>
</svg>